<svg height="512pt" viewBox="-14 0 512 512" width="512pt" xmlns="http://www.w3.org/2000/svg"><path d="m271.734375 49.003906h89.867187c16.492188 0 29.863282 13.371094 29.863282 29.863282v393.265624c0 16.496094-13.371094 29.867188-29.863282 29.867188h-321.734374c-16.496094 0-29.867188-13.371094-29.867188-29.867188v-393.265624c0-16.492188 13.371094-29.863282 29.867188-29.863282h90.53125" fill="#9593e6"/><path d="m286.398438 94.003906h60.070312v362.996094h-291.46875v-362.996094h59.734375" fill="#f9f9f9"/><path d="m242.359375 49.003906c-1.199219-21.574218-19.375-39.003906-41.625-39.003906s-40.429687 17.429688-41.628906 39.003906h-41.261719v28.71875c0 26.476563 21.464844 47.941406 47.945312 47.941406h69.890626c26.476562 0 47.941406-21.464843 47.941406-47.941406v-28.71875zm0 0" fill="#9bc6ff"/><path d="m256 502h218.769531v-203.46875h-218.769531zm0 0" fill="#ffcb7c"/><path d="m405.871094 392.324219-40.484375-14.523438-40.488281 14.523438v-93.792969h80.972656zm0 0" fill="#f9f9f9"/><path d="m200.546875 190.277344c-4.238281 0-8.101563-2.785156-9.460937-6.789063-1.328126-3.890625-.058594-8.328125 3.117187-10.9375 3.269531-2.679687 8.03125-2.996093 11.625-.765625 3.492187 2.164063 5.34375 6.417969 4.527344 10.445313-.9375 4.617187-5.085938 8.046875-9.808594 8.046875zm0 0"/><path d="m155.507812 190.277344h-34.398437c-5.519531 0-10-4.476563-10-10 0-5.519532 4.480469-10 10-10h34.398437c5.523438 0 10 4.480468 10 10 0 5.523437-4.476562 10-10 10zm0 0"/><path d="m283.621094 190.277344h-37.664063c-5.523437 0-10-4.476563-10-10 0-5.519532 4.476563-10 10-10h37.664063c5.523437 0 10 4.480468 10 10 0 5.523437-4.476563 10-10 10zm0 0"/><path d="m474.769531 288.53125h-73.300781v-209.664062c0-21.980469-17.886719-39.863282-39.867188-39.863282h-110.671874c-5.570313-22.496094-26.039063-39.003906-50.195313-39.003906-24.160156 0-44.625 16.507812-50.195313 39.003906h-110.671874c-21.984376 0-39.867188 17.882813-39.867188 39.863282v393.265624c0 21.980469 17.882812 39.867188 39.867188 39.867188h434.902343c5.519531 0 10-4.476562 10-10v-203.46875c0-5.519531-4.476562-10-10-10zm-218.769531 0c-5.523438 0-10 4.480469-10 10v18.835938h-124.886719c-5.523437 0-10 4.480468-10 10 0 5.523437 4.476563 10 10 10h124.886719v53.546874h-124.886719c-5.523437 0-10 4.476563-10 10 0 5.519532 4.476563 10 10 10h124.886719v36.085938h-181v-342.996094h49.15625c9.59375 18.777344 29.136719 31.664063 51.632812 31.664063h69.890626c22.496093 0 42.039062-12.886719 51.632812-31.664063h49.15625v184.527344zm78.898438 20h60.972656v69.582031l-27.109375-9.726562c-1.089844-.390625-2.234375-.585938-3.375-.585938-1.144531 0-2.285157.195313-3.375.585938l-27.113281 9.726562zm46.570312-229.664062v209.664062h-25v-194.527344c0-5.523437-4.480469-10-10-10h-53.1875c.222656-2.066406.339844-4.160156.339844-6.28125v-18.71875h67.980468c10.953126 0 19.867188 8.910156 19.867188 19.863282zm-222.363281-19.863282c5.308593 0 9.691406-4.148437 9.984375-9.445312.921875-16.578125 14.820312-29.558594 31.644531-29.558594 16.820313 0 30.71875 12.980469 31.640625 29.558594.296875 5.296875 4.679688 9.445312 9.984375 9.445312h31.261719v18.71875c0 20.921875-17.019532 37.945313-37.941406 37.945313h-69.890626c-20.925781 0-37.945312-17.023438-37.945312-37.945313v-18.71875zm-139.105469 413.128906v-393.265624c0-10.953126 8.910156-19.863282 19.867188-19.863282h67.976562v18.71875c0 2.121094.117188 4.214844.339844 6.28125h-53.183594c-5.523438 0-10 4.476563-10 10v362.996094c0 5.523438 4.476562 10 10 10h191v25h-206.132812c-10.957032 0-19.867188-8.910156-19.867188-19.867188zm444.769531 19.867188h-198.769531v-183.46875h48.898438v83.789062c0 3.253907 1.582031 6.308594 4.246093 8.179688 2.660157 1.871094 6.066407 2.332031 9.128907 1.234375l37.113281-13.308594 37.109375 13.308594c1.097656.394531 2.238281.589844 3.375.589844 2.035156 0 4.046875-.621094 5.757812-1.824219 2.660156-1.871094 4.242188-4.921875 4.242188-8.175781v-83.792969h48.898437zm0 0"/><path d="m283.621094 263.824219h-162.507813c-5.523437 0-10-4.480469-10-10 0-5.523438 4.476563-10 10-10h162.511719c5.519531 0 10 4.476562 10 10-.003906 5.523437-4.480469 10-10.003906 10zm0 0"/></svg>